<?xml version="1.0" encoding="utf-8"?>
<!DOCTYPE svg PUBLIC "-//W3C//DTD SVG 1.0//EN" "http://www.w3.org/TR/2001/REC-SVG-20010904/DTD/svg10.dtd">
<svg version="1.0" xmlns="http://www.w3.org/2000/svg" width="403px" height="399px" viewBox="0 0 403 399" preserveAspectRatio="xMidYMid meet">
 <g fill="#3cd7e4">
  <path d="M176 304.5 c-39.4 -8.9 -69 -35 -81.6 -71.9 -7.2 -21.1 -7.2 -48.1 -0.1 -69.1 12.8 -37.5 45.1 -65.2 84.1 -72.1 58.3 -10.2 115 29.4 125.1 87.5 8.6 49.1 -17 97.7 -62.3 118 -14.6 6.6 -22.9 8.3 -41.7 8.7 -12.4 0.3 -18.8 0 -23.5 -1.1z m45 -93 l34.5 -34.5 -7.3 -7.2 -7.2 -7.3 -25.8 25.8 c-23.8 23.8 -26 25.7 -29.2 25.7 -3.2 0 -4.9 -1.4 -19.5 -16 l-16 -16 -7.2 7.2 -7.3 7.3 24.7 24.7 c13.6 13.7 25 24.8 25.3 24.8 0.3 0 16 -15.5 35 -34.5z"/>
 </g>
 <g fill="#cedbe9">
  <path d="M178 379.3 c-34.7 -5.2 -55.7 -12.8 -80 -28.7 -9.3 -6.1 -22.7 -16.8 -24.3 -19.3 -0.4 -0.7 -1.9 -1.3 -3.2 -1.3 -2.5 0 -2.5 0.1 -2.5 8.6 l0 8.5 -3.8 -0.3 -3.7 -0.3 -0.3 -16.2 -0.2 -16.3 16.5 0 16.5 0 0 4 0 4 -8.5 0 c-6.4 0 -8.5 0.3 -8.5 1.3 0 0.8 4 4.6 8.9 8.6 23.2 19.1 47.1 30.7 75.5 36.7 15 3.2 41.6 4.3 57.4 2.5 73.3 -8.5 132.6 -61.9 149.1 -134.1 5.1 -22.5 5.4 -53.1 0.7 -75 -3.3 -15.4 -10.9 -36.4 -17.3 -48 -0.4 -0.7 5.7 -4.3 6.3 -3.8 1.1 1.2 9.6 20.5 12.4 28.3 27.4 77.6 -2.7 166 -72.2 211.6 -30.2 19.8 -65 30.1 -101 29.8 -8.4 -0.1 -16.4 -0.3 -17.8 -0.6z"/>
  <path d="M32.6 276 c-6 -12.8 -11.9 -30.7 -14.8 -45.1 -1.9 -9.6 -2.2 -14.7 -2.3 -31.9 0 -21.3 0.7 -27.5 5.1 -45.1 5.5 -22 16.4 -45.2 30.2 -63.9 34 -46.1 89.3 -74 146.4 -74 40.5 0 81.6 14.6 113.3 40.1 3.9 3.1 7.9 6.6 8.9 7.8 1.1 1.1 3 2.1 4.3 2.1 2.2 0 2.3 -0.3 2.3 -8 l0 -8 4 0 4 0 -0.2 16.2 -0.3 16.3 -16.2 0.3 -16.3 0.2 0 -3.9 0 -3.9 7.4 -0.4 c4.1 -0.2 7.8 -0.7 8.2 -1.1 3.1 -3 -19.7 -20.4 -40.6 -31.1 -26.5 -13.6 -53.6 -19.4 -85.5 -18.3 -54.5 1.8 -102.8 27.3 -134.8 71.3 -5.2 7.2 -15.7 24.5 -15.7 26 0 0.2 -1.3 3.2 -2.9 6.6 -3.8 8.4 -8.7 24.4 -11.3 37 -3 14.1 -3.2 50.5 -0.5 64.3 3.3 16.6 9.6 35.5 16.3 48.6 l2.3 4.7 -2.4 1.6 c-1.3 0.9 -2.8 1.6 -3.3 1.6 -0.5 0 -3 -4.5 -5.6 -10z"/>
 </g>
 <g fill="#fffffe">
  <path d="M157.7 224.2 l-27.7 -27.7 9.8 -9.8 c5.3 -5.3 10.1 -9.7 10.7 -9.7 0.5 0 8.7 7.8 18.2 17.2 l17.3 17.3 27.5 -27.5 27.5 -27.5 10.2 10.3 10.3 10.2 -37.5 37.5 c-20.6 20.6 -37.7 37.5 -38 37.5 -0.3 0 -13 -12.5 -28.3 -27.8z"/>
 </g>
</svg>